<svg width="800" height="800" viewBox="0 0 800 800" fill="none" xmlns="http://www.w3.org/2000/svg">
<g clip-path="url(#clip0_116_91)">
<circle cx="400" cy="400" r="400" fill="url(#paint0_linear_116_91)"/>
<path d="M533.502 294.552V305.311H461.432V269.506H508.456C522.214 269.506 533.502 280.724 533.502 294.552Z" fill="#F3A55B"/>
<path d="M446.052 269.506H418.536V305.311H446.052V269.506Z" fill="#F3A55B"/>
<path d="M403.156 269.506V305.312H239.332V294.552C239.332 280.724 250.55 269.506 264.378 269.506H403.156Z" fill="#F3A55B"/>
<path fill-rule="evenodd" clip-rule="evenodd" d="M603.279 452.59C623.387 463.667 640.108 479.824 651.643 499.402L651.678 499.473C655.865 506.601 659.346 514.113 662.08 521.884C666.823 535.297 669.352 549.604 669.352 564.276V884.479C669.352 884.656 669.351 884.831 669.351 885.007C669.335 888.59 669.152 892.075 668.778 895.545C668.279 900.33 667.459 905.027 666.34 909.613C664.652 916.581 662.263 923.315 659.298 929.704C659.033 930.18 658.778 930.682 658.522 931.185C658.266 931.688 658.01 932.191 657.746 932.667C656.885 934.416 655.932 936.166 654.904 937.84C654.645 938.28 654.384 938.719 654.119 939.156C654.032 939.356 653.896 939.567 653.76 939.758C652.348 942.121 650.796 944.379 649.244 946.531V946.601C649.244 946.601 649.186 946.601 649.175 946.653C649.178 946.626 649.181 946.599 649.183 946.572C649.16 946.603 649.138 946.634 649.115 946.666C647.969 948.553 646.392 950.596 644.276 952.801C638.631 959.437 632.161 965.372 625.004 970.443C612.732 979.161 598.446 985.34 582.819 988.086C560.026 992.147 537.079 995.455 514.057 998.002C475.686 1002.25 437.105 1004.38 398.676 1004.38C358.385 1004.38 317.913 1002.04 277.726 997.37C256.572 994.916 235.488 991.82 214.533 988.086C198.907 985.341 184.623 979.162 172.351 970.445C165.193 965.374 158.722 959.438 153.075 952.8C150.959 950.595 149.383 948.553 148.237 946.666C148.214 946.634 148.192 946.603 148.169 946.572C148.171 946.599 148.174 946.626 148.177 946.653C148.165 946.601 148.108 946.601 148.108 946.601V946.531C146.556 944.379 145.003 942.121 143.592 939.758C143.456 939.567 143.32 939.356 143.233 939.156C142.968 938.719 142.707 938.28 142.448 937.839C141.42 936.166 140.467 934.416 139.606 932.667C139.342 932.191 139.086 931.688 138.83 931.185C138.574 930.683 138.319 930.18 138.054 929.704C135.089 923.315 132.7 916.579 131.012 909.611C129.892 905.025 129.073 900.327 128.574 895.543C128.201 892.085 128.018 888.612 128.001 885.043C128 884.855 128 884.667 128 884.479L128 564.276C128 549.601 130.53 535.293 135.274 521.878C138.008 514.109 141.488 506.599 145.674 499.473L145.709 499.402C157.244 479.824 173.965 463.667 194.073 452.59C220.001 438.268 238.733 413.504 245.471 384.789L249.034 369.444L225.469 369.444L225.01 369.444C211.499 369.444 200.458 358.438 200.458 344.892V329.723C200.458 316.282 211.464 305.276 225.01 305.276H225.455C225.46 305.276 225.464 305.276 225.469 305.276L228.291 305.276V294.517C228.291 267.989 249.88 246.4 276.408 246.4H276.842C276.85 246.4 276.858 246.4 276.866 246.4H520.944C547.472 246.4 569.061 267.989 569.061 294.517V305.276L571.883 305.276L572.342 305.276C585.888 305.276 596.894 316.282 596.894 329.723V344.892C596.894 358.438 585.852 369.444 572.342 369.444H571.903C571.896 369.444 571.89 369.444 571.883 369.444L548.318 369.444L551.881 384.789C558.619 413.504 577.351 438.268 603.279 452.59ZM148.177 946.653C148.177 946.659 148.178 946.666 148.178 946.672C148.178 946.665 148.178 946.659 148.177 946.653ZM255.377 971.314C243.086 969.551 230.856 967.621 218.625 965.403C197.459 961.664 179.363 949.988 167.298 933.584C167.26 933.538 167.2 933.465 167.12 933.366C166.937 933.144 166.649 932.793 166.275 932.333C158.04 920.761 152.76 906.989 151.388 892.17C151.148 889.738 151.042 887.272 151.036 884.774L151.036 564.346C151.036 562.334 151.094 560.325 151.21 558.323C151.298 556.786 151.421 555.254 151.577 553.73C154.205 528.08 166.261 504.435 185.059 487.261C191.137 481.719 197.884 476.875 205.15 472.874C205.168 472.864 205.187 472.854 205.206 472.844C220.95 464.169 234.477 452.573 245.47 438.198C256.3 423.734 263.955 407.507 267.941 390.081L272.81 369.55L524.542 369.55L529.41 390.081C533.397 407.507 541.052 423.734 551.881 438.198C562.874 452.573 576.401 464.168 592.145 472.843C592.164 472.853 592.183 472.864 592.202 472.874C599.466 476.874 606.211 481.717 612.288 487.257C630.642 504.024 642.572 526.96 645.572 551.908C646.066 556.022 646.316 560.175 646.316 564.346V884.789C646.31 887.282 646.203 889.743 645.964 892.17C644.592 906.989 639.312 920.761 631.077 932.333C630.702 932.793 630.414 933.144 630.232 933.366C630.151 933.465 630.091 933.538 630.054 933.584C617.989 949.988 599.892 961.664 578.727 965.403C566.496 967.621 554.266 969.55 541.975 971.314C541.28 971.412 540.584 971.51 539.889 971.606C538.993 971.716 538.098 971.844 537.202 971.976C491.379 978.226 445.076 981.352 398.753 981.359C352.379 981.359 306.024 978.233 260.15 971.976C259.254 971.844 258.359 971.716 257.463 971.606C256.768 971.51 256.072 971.412 255.377 971.314ZM649.174 946.672C649.174 946.665 649.174 946.659 649.175 946.653C649.175 946.659 649.174 946.666 649.174 946.672ZM473.885 269.506H520.521C534.279 269.506 545.567 280.759 545.567 294.552V305.276H473.885V269.506ZM458.469 269.506V305.276H430.989V269.506H458.469ZM415.644 269.506V305.311L381.708 305.311V269.506L415.644 269.506ZM366.363 269.506V305.276H338.883V269.506H366.363ZM251.785 305.276V294.552C251.785 280.759 263.073 269.506 276.831 269.506H323.467V305.276H251.785ZM223.952 344.892C223.952 345.668 224.551 346.373 225.433 346.373L571.918 346.373C571.92 346.373 571.922 346.373 571.924 346.373C572.803 346.371 573.4 345.666 573.4 344.892V329.723C573.4 328.947 572.8 328.347 571.918 328.347H225.433C224.551 328.347 223.952 328.947 223.952 329.723V344.892Z" fill="white"/>
<path fill-rule="evenodd" clip-rule="evenodd" d="M626.632 557.714L626.632 563.711L626.385 587.981C626.25 593.127 626.141 598.265 626.031 603.402C625.796 614.43 625.561 625.451 625.079 636.522C624.531 652.265 623.859 668.049 622.928 683.831V864.76C622.928 876.623 620.176 887.831 615.115 897.88C607.176 916.93 590.304 930.876 559.783 937.958C546.499 940.323 533.131 942.369 519.702 944.105C519.704 944.196 519.707 944.287 519.709 944.379C425.556 956.761 329.216 954.609 235.663 937.958C232.501 937.4 229.415 936.645 226.417 935.706C214.291 932.215 194.637 923.028 180.914 899.013C175.482 888.677 172.519 877.071 172.519 864.76V683.831C171.588 668.049 170.916 652.265 170.367 636.521C169.885 625.451 169.65 614.43 169.415 603.402C169.306 598.265 169.196 593.127 169.062 587.981L168.815 563.711L168.815 557.714C168.815 557.702 168.815 557.69 168.815 557.677V557.643C168.815 555.562 169.167 552.775 169.52 550.623C170.226 546.108 171.425 541.699 172.977 537.536C179.75 520.639 191.956 507.269 205.573 497.144C207.79 495.435 210.114 493.922 212.424 492.418C213.642 491.625 214.856 490.834 216.05 490.019C217.611 489.076 219.254 488.126 220.862 487.196C222.924 486.004 224.928 484.845 226.633 483.775C233.3 479.859 239.65 475.449 245.611 470.581C269.105 450.897 285.156 421.688 289.142 389.516C289.147 389.583 289.152 389.649 289.157 389.716C289.164 389.661 289.171 389.606 289.178 389.552C291.682 421.971 278.171 456.048 253.619 479.542C247.552 485.362 240.884 490.724 233.688 495.24L223.705 501.73C222.993 502.242 222.279 502.748 221.565 503.253C219.129 504.978 216.708 506.691 214.497 508.574C203.844 516.97 194.743 526.953 189.275 538.559V538.63L189.204 538.7C188.499 540.076 187.899 541.452 187.37 542.933C186.065 546.32 185.112 549.706 184.513 553.093C184.16 555.033 183.983 556.233 183.913 558.137V564.205L183.807 574.573V591.936C184.729 603.444 190.123 614.048 198.682 621.526C204.935 624.929 212.52 626.063 220.142 623.963C232.453 620.577 247.199 616.943 263.567 613.909C313.836 604.632 379.238 601.245 433.776 626.997C503.129 659.698 558.548 642.695 588.11 627.42C601.627 620.416 610.437 606.945 611.639 591.936V574.574L611.533 564.205V558.137C611.463 556.232 611.286 555.033 610.934 553.093C610.334 549.706 609.382 546.32 608.076 542.933C607.547 541.452 606.947 540.076 606.242 538.7L606.171 538.629V538.559C600.704 526.953 591.602 516.97 580.949 508.574C578.739 506.691 576.317 504.977 573.881 503.253C573.168 502.748 572.453 502.242 571.742 501.73L561.758 495.239C554.562 490.724 547.895 485.362 541.827 479.542C517.275 456.047 503.764 421.97 506.269 389.551C506.275 389.606 506.282 389.661 506.289 389.716C506.294 389.649 506.299 389.583 506.304 389.516C510.29 421.688 526.341 450.897 549.835 470.581C555.797 475.45 562.146 479.859 568.814 483.775C570.518 484.845 572.522 486.004 574.584 487.196C576.192 488.126 577.835 489.076 579.397 490.019C580.59 490.835 581.804 491.625 583.022 492.418C585.333 493.923 587.656 495.435 589.874 497.145C603.49 507.269 615.696 520.639 622.469 537.536C624.021 541.699 625.221 546.108 625.926 550.624C626.279 552.775 626.632 555.562 626.632 557.644V557.68C626.632 557.692 626.632 557.703 626.632 557.714Z" fill="white"/>
<path d="M424.428 646.611C362.376 613.24 269 614.016 263.461 613.945C313.73 604.667 379.133 601.281 433.67 627.033C503.023 659.734 558.443 642.731 588.004 627.456C602.573 619.907 611.675 604.844 611.675 588.44C612.027 697.726 480.058 676.49 424.463 646.611H424.428Z" fill="#69D9FE"/>
<path d="M723.328 367.712L707.296 370.176C696.704 371.808 688.416 380.096 686.784 390.688L684.32 406.72L681.856 390.688C680.224 380.096 671.936 371.808 661.344 370.176L645.312 367.712L661.344 365.248C671.936 363.616 680.224 355.328 681.856 344.736L684.32 328.704L686.784 344.736C688.416 355.328 696.704 363.616 707.296 365.248L723.328 367.712Z" fill="#FEFEFE"/>
<path d="M395.936 82.976L384.512 84.736C376.96 85.888 371.072 91.808 369.888 99.36L368.128 110.784L366.368 99.36C365.216 91.808 359.296 85.92 351.744 84.736L340.32 82.976L351.744 81.216C359.296 80.064 365.184 74.144 366.368 66.592L368.128 55.168L369.888 66.592C371.04 74.144 376.96 80.032 384.512 81.216L395.936 82.976Z" fill="#FEFEFE"/>
<path d="M125.248 413.728L115.296 415.264C108.736 416.288 103.584 421.44 102.56 428L101.024 437.952L99.4881 428C98.4641 421.44 93.3121 416.288 86.7521 415.264L76.8 413.728L86.7521 412.192C93.3121 411.168 98.4641 406.016 99.4881 399.456L101.024 389.504L102.56 399.456C103.584 406.016 108.736 411.168 115.296 412.192L125.248 413.728Z" fill="#69D9FE"/>
<path d="M262.464 191.808L256.256 192.768C252.16 193.408 248.928 196.608 248.288 200.736L247.328 206.944L246.368 200.736C245.728 196.64 242.528 193.408 238.4 192.768L232.192 191.808L238.4 190.848C242.496 190.208 245.728 187.008 246.368 182.88L247.328 176.672L248.288 182.88C248.928 186.976 252.128 190.208 256.256 190.848L262.464 191.808Z" fill="white"/>
<path d="M593.28 164.448L579.168 166.624C569.856 168.064 562.528 175.36 561.12 184.672L558.944 198.784L556.768 184.672C555.328 175.36 548.032 168.032 538.72 166.624L524.608 164.448L538.72 162.272C548.032 160.832 555.36 153.536 556.768 144.224L558.944 130.112L561.12 144.224C562.56 153.536 569.856 160.864 579.168 162.272L593.28 164.448Z" fill="#999FDD"/>
</g>
<defs>
<linearGradient id="paint0_linear_116_91" x1="408.286" y1="29.627" x2="408.286" y2="783.654" gradientUnits="userSpaceOnUse">
<stop stop-color="#071A45"/>
<stop offset="1" stop-color="#0471AF"/>
</linearGradient>
<clipPath id="clip0_116_91">
<rect width="800" height="800" rx="400" fill="white"/>
</clipPath>
</defs>
</svg>
