<svg width="1117" height="123" viewBox="0 0 1117 123" fill="none" xmlns="http://www.w3.org/2000/svg">
<g clip-path="url(#clip0_116_28)">
<path d="M661.22 64.8001C661.22 53.3401 670.34 43.3601 685.2 43.3601C694.75 43.3601 702.39 46.5401 707.05 51.5301L697.93 64.2701C694.64 61.1901 692.2 59.2801 686.68 59.2801C682.01 59.2801 679.26 61.4001 679.26 64.8001C679.26 77.1101 710.24 74.1301 710.24 98.3301C710.24 111.28 699.1 120.19 684.77 120.19C674.8 120.19 663.23 115.95 659.62 107.99L669.28 96.4201C673.53 101.83 680 104.27 685.2 104.27C689.65 104.27 692.2 102.04 692.2 98.5401C692.2 87.4001 661.22 88.7801 661.22 64.8001Z" fill="url(#paint0_linear_116_28)"/>
<path d="M727.21 44.6401H788.76V60.5601H766.48V118.92H749.5V60.5601H727.22V44.6401H727.21Z" fill="url(#paint1_linear_116_28)"/>
<path d="M872.68 88.2501C872.68 110.96 858.25 120.19 842.33 120.19C823.23 120.19 809.97 109.26 809.97 87.5101V44.6401H826.94V83.9001C826.94 95.4701 830.44 104.27 842.33 104.27C852.62 104.27 855.7 96.7401 855.7 84.8501V44.6301H872.68V88.2401V88.2501Z" fill="url(#paint2_linear_116_28)"/>
<path d="M902.37 44.6401H903.86C907.79 44.6401 920.95 44.3201 925.83 44.3201C955.54 44.3201 967.53 61.4101 967.53 81.1401C967.53 101.94 953.31 119.13 924.98 119.13C921.05 119.13 911.29 118.92 904.18 118.92H902.37V44.6401ZM919.35 60.5501V103C921.58 103.21 923.07 103.21 925.51 103.21C940.15 103.21 949.49 95.2501 949.49 81.1401C949.49 67.0301 939.41 60.2301 925.61 60.2301C923.81 60.2301 921.47 60.2301 919.35 60.5501Z" fill="url(#paint3_linear_116_28)"/>
<path d="M994.04 44.6401H1011.02V118.92H994.04V44.6401Z" fill="url(#paint4_linear_116_28)"/>
<path d="M1077.01 43.3601C1099.61 43.3601 1116.49 58.1101 1116.49 81.7701C1116.49 105.43 1099.61 120.18 1077.01 120.18C1054.41 120.18 1037.53 105.43 1037.53 81.7701C1037.53 60.2301 1053.34 43.3601 1077.01 43.3601ZM1077.01 104.27C1091.12 104.27 1098.45 94.3001 1098.45 81.7801C1098.45 68.2001 1089 59.2801 1077.01 59.2801C1065.02 59.2801 1055.57 68.2001 1055.57 81.7801C1055.57 94.5101 1065.12 104.27 1077.01 104.27Z" fill="url(#paint5_linear_116_28)"/>
<path d="M99.19 0.669922L64.36 51.0299L27.48 0.669922H0V120.19H27.32V44.5499L57.17 86.1299L60.43 90.6699H64.36L65.06 89.6799L97.66 44.0499V120.2H124.98V0.669922H99.19Z" fill="#055A93"/>
<path d="M165.25 2.3999C156.88 2.3999 149.72 7.8599 149.72 16.9099C149.72 26.9799 156.88 32.4399 165.25 32.4399C172.6 32.4399 179.76 26.9799 179.76 16.9099C179.76 7.8699 172.6 2.3999 165.25 2.3999ZM151.92 43.3599V120.18H177.55V43.3599H151.92Z" fill="#055A93"/>
<path d="M235.07 95.6099C232.67 97.1399 230.98 98.3299 228.42 98.3299C225.86 98.3299 224.14 95.4199 224.14 88.4199V0.669922H198.54V98.1699C198.54 114.88 205.7 122.23 217.65 122.23C228.07 122.23 235.23 119.16 240.18 115.07L235.07 95.6099Z" fill="#055A93"/>
<path d="M314.32 91.7099L305.05 77.9999L329.98 43.3599H297.9L276.9 76.6599V0.669922H251.27V120.19H276.9V83.4699L298.28 116.32L300.8 120.19H333.59L314.32 91.7199V91.7099Z" fill="#055A93"/>
<path d="M445.73 56.69V56.34C454.61 50.52 459.38 42.15 459.38 29.69C459.38 13.14 447.78 0 419.28 0C406.31 0 389.75 0.67 383.07 1.02V119.83C390.07 120.53 405.95 120.85 417.39 120.85C439.76 120.85 457.3 112.13 461.71 93.62C462.41 90.65 462.8 87.45 462.8 83.97C462.8 68.6 454.46 59.91 445.74 56.68L445.73 56.69ZM410.38 26.3C413.45 25.95 415.49 25.6 418.91 25.6C425.59 25.6 432.08 29.18 432.08 36.37C432.08 45.06 426.42 47.97 419.43 47.97H410.39V26.3H410.38ZM410.38 71.87H420.96C429.84 71.87 435.47 75.13 435.47 82.64C435.47 90.66 430.2 95.26 419.62 95.26C414.48 95.26 412.27 94.75 410.38 94.24V71.87Z" fill="#055A93"/>
<path d="M512.8 41.3201C502.06 41.3201 490.43 45.0601 484.29 48.8301L490.62 67.4301C495.38 65.5401 501.2 62.6401 510.24 62.6401C517.08 62.6401 521.33 66.5701 520.82 75.8101C518.46 73.9201 512.64 71.5301 505.8 71.5301C493.4 71.5301 482.82 76.9001 479.34 88.3401C478.57 90.9301 478.16 93.7701 478.16 96.9701C478.16 112.53 488.58 121.22 502.38 121.22C510.75 121.22 518.77 118.5 522.54 113.2V120.2H544.72V73.9301C544.72 53.0901 536.19 41.3301 512.8 41.3301V41.3201ZM511.11 99.8601C506.83 99.8601 503.76 97.8101 503.76 94.4001C503.76 91.8401 505.2 90.0501 507.5 89.2501C508.52 88.8001 509.77 88.6101 511.11 88.6101C515.36 88.6101 518.46 89.4401 520.82 91.1701V95.9301C519.29 97.9701 516.22 99.8601 511.11 99.8601Z" fill="#055A93"/>
<path d="M603.3 41.99C594.58 41.99 590.49 45.06 587.42 49.5V43.36H561.79V120.18H587.42V71.35C589.11 68.28 591.67 65.89 596.81 65.89C600.39 65.89 602.43 66.56 606.17 68.8L615.25 44.9C612.66 43.01 609.59 41.99 603.3 41.99Z" fill="#055A93"/>
<g opacity="0.43">
<path d="M0 120.19H27.32V79.8301C17.22 79.4501 7.95 80.8201 0 82.9001V120.19Z" fill="#69D9FE"/>
<path d="M60.4299 90.6601H64.3599L65.0599 89.6701C62.4099 88.3601 59.7899 87.1801 57.1699 86.1201L60.4299 90.6601Z" fill="#69D9FE"/>
<path d="M97.6599 107.98V120.19H124.98V105.3C117.05 109.1 108.17 111.02 97.6599 107.98Z" fill="#69D9FE"/>
<path d="M151.92 87.3701V120.19H177.55V89.0601C168.41 80.5601 160.33 82.2901 151.92 87.3701Z" fill="#69D9FE"/>
<path d="M298.28 116.32L300.8 120.19H333.59L314.32 91.72C309.21 99.33 303.9 107.67 298.28 116.33V116.32Z" fill="#69D9FE"/>
<path d="M386.06 84.2401C385.04 82.4201 384.05 80.6901 383.06 79.0601V119.84C390.06 120.54 405.94 120.86 417.38 120.86C439.75 120.86 457.29 112.14 461.7 93.6301C432.68 104.37 406.35 120.76 386.06 84.2401Z" fill="#69D9FE"/>
<path d="M511.11 99.8601C506.83 99.8601 503.76 97.8101 503.76 94.4001C503.76 91.8401 505.2 90.0501 507.5 89.2501C497.98 86.1201 488.55 86.4101 479.35 88.3201C478.58 90.9101 478.17 93.7501 478.17 96.9501C478.17 112.51 488.59 121.2 502.39 121.2C510.76 121.2 518.78 118.48 522.55 113.18V120.18H544.73V110.5C538.05 107.14 530.19 102.38 520.83 95.9301C519.3 97.9701 516.23 99.8601 511.12 99.8601H511.11Z" fill="#69D9FE"/>
<path d="M561.79 116.86V120.18H587.42V108C580.65 114.2 574.22 119.25 561.79 116.85V116.86Z" fill="#69D9FE"/>
</g>
</g>
<defs>
<linearGradient id="paint0_linear_116_28" x1="683.33" y1="81.7801" x2="1174.91" y2="81.7801" gradientUnits="userSpaceOnUse">
<stop stop-color="#0CF1FA"/>
<stop offset="1" stop-color="#0368FE"/>
</linearGradient>
<linearGradient id="paint1_linear_116_28" x1="683.33" y1="81.7801" x2="1174.91" y2="81.7801" gradientUnits="userSpaceOnUse">
<stop stop-color="#0CF1FA"/>
<stop offset="1" stop-color="#0368FE"/>
</linearGradient>
<linearGradient id="paint2_linear_116_28" x1="683.33" y1="82.4101" x2="1174.91" y2="82.4101" gradientUnits="userSpaceOnUse">
<stop stop-color="#0CF1FA"/>
<stop offset="1" stop-color="#0368FE"/>
</linearGradient>
<linearGradient id="paint3_linear_116_28" x1="683.33" y1="81.7301" x2="1174.91" y2="81.7301" gradientUnits="userSpaceOnUse">
<stop stop-color="#0CF1FA"/>
<stop offset="1" stop-color="#0368FE"/>
</linearGradient>
<linearGradient id="paint4_linear_116_28" x1="683.329" y1="81.7801" x2="1174.91" y2="81.7801" gradientUnits="userSpaceOnUse">
<stop stop-color="#0CF1FA"/>
<stop offset="1" stop-color="#0368FE"/>
</linearGradient>
<linearGradient id="paint5_linear_116_28" x1="683.33" y1="9.64491e-05" x2="1174.91" y2="9.64491e-05" gradientUnits="userSpaceOnUse">
<stop stop-color="#0CF1FA"/>
<stop offset="1" stop-color="#0368FE"/>
</linearGradient>
<clipPath id="clip0_116_28">
<rect width="1116.48" height="122.23" fill="white"/>
</clipPath>
</defs>
</svg>
